<svg width="42" height="27" viewBox="0 0 42 27" fill="none" xmlns="http://www.w3.org/2000/svg">
<path fill-rule="evenodd" clip-rule="evenodd" d="M0 13.5019C0 13.1041 0.158035 12.7225 0.439339 12.4412C0.720646 12.1599 1.10218 12.0019 1.5 12.0019H36.879L27.438 2.56389C27.2985 2.42443 27.1879 2.25886 27.1124 2.07665C27.037 1.89443 26.9981 1.69913 26.9981 1.50189C26.9981 1.30466 27.037 1.10936 27.1124 0.927144C27.1879 0.744926 27.2985 0.579358 27.438 0.439894C27.5775 0.300431 27.743 0.189802 27.9253 0.114325C28.1075 0.0388478 28.3028 0 28.5 0C28.6972 0 28.8925 0.0388478 29.0748 0.114325C29.257 0.189802 29.4225 0.300431 29.562 0.439894L41.562 12.4399C41.7017 12.5792 41.8125 12.7448 41.8881 12.927C41.9638 13.1092 42.0027 13.3046 42.0027 13.5019C42.0027 13.6992 41.9638 13.8946 41.8881 14.0768C41.8125 14.259 41.7017 14.4246 41.562 14.5639L29.562 26.5639C29.4225 26.7034 29.257 26.814 29.0748 26.8895C28.8925 26.9649 28.6972 27.0038 28.5 27.0038C28.3028 27.0038 28.1075 26.9649 27.9253 26.8895C27.743 26.814 27.5775 26.7034 27.438 26.5639C27.2985 26.4244 27.1879 26.2589 27.1124 26.0766C27.037 25.8944 26.9981 25.6991 26.9981 25.5019C26.9981 25.3047 27.037 25.1094 27.1124 24.9271C27.1879 24.7449 27.2985 24.5794 27.438 24.4399L36.879 15.0019H1.5C1.10218 15.0019 0.720646 14.8439 0.439339 14.5626C0.158035 14.2812 0 13.8997 0 13.5019Z" fill="#FE5B3E"/>
</svg>
